<!-- icon666.com - MILLIONS OF FREE VECTOR ICONS --><svg clip-rule="evenodd" fill-rule="evenodd" image-rendering="optimizeQuality" shape-rendering="geometricPrecision" text-rendering="geometricPrecision" viewBox="0 0 1707 1707" xmlns="http://www.w3.org/2000/svg"><g id="Layer_x0020_1"><path d=""></path><path d=""></path><path d="m96 1707c-51 0-140-71-37-177l1016-1059c49-51 126-48 174-1 46 47 45 128-1 173l-1059 1013c-15 15-51 51-93 51z"></path><path d=""></path><path d="m1322 689c-16 0-31-3-45-8l4-4c66-63 65-176 1-240-57-57-143-66-208-25 5-106 53-204 137-280 122-109 305-157 466-122 11 3 18 12 19 22 0 10-6 19-15 23-20 13-119 136-128 205-1 7 0 13 1 17 35 16 54 49 53 94-1 51-29 119-75 181-48 65-107 112-162 129-16 6-33 8-48 8z"></path></g></svg>